<mxfile host="65bd71144e">
    <diagram id="fez80xR1LJdGnvKZSNV0" name="ページ1">
        <mxGraphModel dx="2697" dy="2104" grid="1" gridSize="10" guides="1" tooltips="1" connect="1" arrows="1" fold="1" page="1" pageScale="1" pageWidth="1654" pageHeight="1169" background="#FFFFFF" math="0" shadow="0">
            <root>
                <mxCell id="0"/>
                <mxCell id="1" parent="0"/>
                <mxCell id="34" value="" style="rounded=1;whiteSpace=wrap;html=1;labelBackgroundColor=none;fontColor=#000000;fillColor=none;strokeColor=#666666;strokeWidth=2;" vertex="1" parent="1">
                    <mxGeometry x="-280" y="100" width="325" height="240" as="geometry"/>
                </mxCell>
                <mxCell id="24" value="" style="rounded=1;whiteSpace=wrap;html=1;labelBackgroundColor=none;fontColor=#000000;fillColor=none;strokeColor=#6666FF;strokeWidth=2;" vertex="1" parent="1">
                    <mxGeometry x="130" y="120" width="470" height="730" as="geometry"/>
                </mxCell>
                <mxCell id="23" value="" style="rounded=1;whiteSpace=wrap;html=1;labelBackgroundColor=none;fontColor=#000000;fillColor=none;strokeColor=#666666;strokeWidth=2;" vertex="1" parent="1">
                    <mxGeometry x="100" y="100" width="520" height="370" as="geometry"/>
                </mxCell>
                <mxCell id="2" value="&lt;font color=&quot;#000000&quot;&gt;Volume&lt;/font&gt;" style="sketch=0;html=1;dashed=0;whitespace=wrap;fillColor=#2875E2;strokeColor=#ffffff;points=[[0.005,0.63,0],[0.1,0.2,0],[0.9,0.2,0],[0.5,0,0],[0.995,0.63,0],[0.72,0.99,0],[0.5,1,0],[0.28,0.99,0]];verticalLabelPosition=bottom;align=center;verticalAlign=top;shape=mxgraph.kubernetes.icon;prIcon=vol" vertex="1" parent="1">
                    <mxGeometry x="303" y="367" width="50" height="48" as="geometry"/>
                </mxCell>
                <mxCell id="3" value="&lt;font color=&quot;#000000&quot;&gt;Secret&lt;/font&gt;" style="sketch=0;html=1;dashed=0;whitespace=wrap;fillColor=#2875E2;strokeColor=#ffffff;points=[[0.005,0.63,0],[0.1,0.2,0],[0.9,0.2,0],[0.5,0,0],[0.995,0.63,0],[0.72,0.99,0],[0.5,1,0],[0.28,0.99,0]];verticalLabelPosition=bottom;align=center;verticalAlign=top;shape=mxgraph.kubernetes.icon;prIcon=secret" vertex="1" parent="1">
                    <mxGeometry x="239.92000000000002" y="367" width="50" height="48" as="geometry"/>
                </mxCell>
                <mxCell id="6" value="&lt;font color=&quot;#000000&quot;&gt;Frontend&lt;br&gt;&lt;/font&gt;" style="sketch=0;html=1;dashed=0;whitespace=wrap;fillColor=#2875E2;strokeColor=#ffffff;points=[[0.005,0.63,0],[0.1,0.2,0],[0.9,0.2,0],[0.5,0,0],[0.995,0.63,0],[0.72,0.99,0],[0.5,1,0],[0.28,0.99,0]];verticalLabelPosition=bottom;align=center;verticalAlign=top;shape=mxgraph.kubernetes.icon;prIcon=pod" vertex="1" parent="1">
                    <mxGeometry x="213.96" y="258" width="50" height="48" as="geometry"/>
                </mxCell>
                <mxCell id="12" value="&lt;font color=&quot;#000000&quot;&gt;Backend&lt;br&gt;&lt;/font&gt;" style="sketch=0;html=1;dashed=0;whitespace=wrap;fillColor=#2875E2;strokeColor=#ffffff;points=[[0.005,0.63,0],[0.1,0.2,0],[0.9,0.2,0],[0.5,0,0],[0.995,0.63,0],[0.72,0.99,0],[0.5,1,0],[0.28,0.99,0]];verticalLabelPosition=bottom;align=center;verticalAlign=top;shape=mxgraph.kubernetes.icon;prIcon=pod" vertex="1" parent="1">
                    <mxGeometry x="321.96000000000004" y="259" width="50" height="48" as="geometry"/>
                </mxCell>
                <mxCell id="13" value="&lt;font color=&quot;#000000&quot;&gt;Database&lt;br&gt;&lt;/font&gt;" style="sketch=0;html=1;dashed=0;whitespace=wrap;fillColor=#2875E2;strokeColor=#ffffff;points=[[0.005,0.63,0],[0.1,0.2,0],[0.9,0.2,0],[0.5,0,0],[0.995,0.63,0],[0.72,0.99,0],[0.5,1,0],[0.28,0.99,0]];verticalLabelPosition=bottom;align=center;verticalAlign=top;shape=mxgraph.kubernetes.icon;prIcon=pod" vertex="1" parent="1">
                    <mxGeometry x="420" y="258" width="50" height="48" as="geometry"/>
                </mxCell>
                <mxCell id="14" value="PVC" style="sketch=0;html=1;dashed=0;whitespace=wrap;fillColor=#2875E2;strokeColor=#ffffff;points=[[0.005,0.63,0],[0.1,0.2,0],[0.9,0.2,0],[0.5,0,0],[0.995,0.63,0],[0.72,0.99,0],[0.5,1,0],[0.28,0.99,0]];verticalLabelPosition=bottom;align=center;verticalAlign=top;shape=mxgraph.kubernetes.icon;prIcon=pvc;labelBackgroundColor=none;fontColor=#000000;" vertex="1" parent="1">
                    <mxGeometry x="370" y="367" width="50" height="48" as="geometry"/>
                </mxCell>
                <mxCell id="16" value="NameSpace:" style="sketch=0;html=1;dashed=0;whitespace=wrap;fillColor=#2875E2;strokeColor=#ffffff;points=[[0.005,0.63,0],[0.1,0.2,0],[0.9,0.2,0],[0.5,0,0],[0.995,0.63,0],[0.72,0.99,0],[0.5,1,0],[0.28,0.99,0]];verticalLabelPosition=bottom;align=center;verticalAlign=top;shape=mxgraph.kubernetes.icon;prIcon=ns;labelBackgroundColor=none;fontColor=#000000;" vertex="1" parent="1">
                    <mxGeometry x="150" y="100" width="50" height="48" as="geometry"/>
                </mxCell>
                <mxCell id="17" value="Worker1" style="sketch=0;html=1;dashed=0;whitespace=wrap;fillColor=#2875E2;strokeColor=#ffffff;points=[[0.005,0.63,0],[0.1,0.2,0],[0.9,0.2,0],[0.5,0,0],[0.995,0.63,0],[0.72,0.99,0],[0.5,1,0],[0.28,0.99,0]];verticalLabelPosition=bottom;align=center;verticalAlign=top;shape=mxgraph.kubernetes.icon;prIcon=node;labelBackgroundColor=none;fontColor=#000000;" vertex="1" parent="1">
                    <mxGeometry x="100" y="80" width="50" height="48" as="geometry"/>
                </mxCell>
                <mxCell id="20" value="Controll&lt;br&gt;Plane" style="sketch=0;html=1;dashed=0;whitespace=wrap;fillColor=#2875E2;strokeColor=#ffffff;points=[[0.005,0.63,0],[0.1,0.2,0],[0.9,0.2,0],[0.5,0,0],[0.995,0.63,0],[0.72,0.99,0],[0.5,1,0],[0.28,0.99,0]];verticalLabelPosition=bottom;align=center;verticalAlign=top;shape=mxgraph.kubernetes.icon;prIcon=master;labelBackgroundColor=none;fontColor=#000000;" vertex="1" parent="1">
                    <mxGeometry x="-280" y="80" width="50" height="48" as="geometry"/>
                </mxCell>
                <mxCell id="61" style="edgeStyle=none;html=1;entryX=0.962;entryY=0.516;entryDx=0;entryDy=0;entryPerimeter=0;strokeColor=#FF0000;fontColor=#000000;startArrow=none;startFill=0;" edge="1" parent="1" source="22" target="13">
                    <mxGeometry relative="1" as="geometry"/>
                </mxCell>
                <mxCell id="22" value="&lt;font color=&quot;#000000&quot;&gt;Migration&lt;br&gt;&lt;/font&gt;" style="sketch=0;html=1;dashed=0;whitespace=wrap;fillColor=#2875E2;strokeColor=#ffffff;points=[[0.005,0.63,0],[0.1,0.2,0],[0.9,0.2,0],[0.5,0,0],[0.995,0.63,0],[0.72,0.99,0],[0.5,1,0],[0.28,0.99,0]];verticalLabelPosition=bottom;align=center;verticalAlign=top;shape=mxgraph.kubernetes.icon;prIcon=pod" vertex="1" parent="1">
                    <mxGeometry x="491" y="265" width="40" height="36" as="geometry"/>
                </mxCell>
                <mxCell id="25" value="" style="rounded=1;whiteSpace=wrap;html=1;labelBackgroundColor=none;fontColor=#000000;fillColor=none;strokeColor=#666666;strokeWidth=2;" vertex="1" parent="1">
                    <mxGeometry x="100" y="490" width="520" height="353" as="geometry"/>
                </mxCell>
                <mxCell id="18" value="Worker2" style="sketch=0;html=1;dashed=0;whitespace=wrap;fillColor=#2875E2;strokeColor=#ffffff;points=[[0.005,0.63,0],[0.1,0.2,0],[0.9,0.2,0],[0.5,0,0],[0.995,0.63,0],[0.72,0.99,0],[0.5,1,0],[0.28,0.99,0]];verticalLabelPosition=bottom;align=center;verticalAlign=top;shape=mxgraph.kubernetes.icon;prIcon=node;labelBackgroundColor=none;fontColor=#000000;" vertex="1" parent="1">
                    <mxGeometry x="100" y="470" width="50" height="48" as="geometry"/>
                </mxCell>
                <mxCell id="83" style="edgeStyle=none;html=1;strokeColor=#999900;fontSize=12;fontColor=#000000;startArrow=none;startFill=0;fillColor=#FFFF33;" edge="1" parent="1" source="27" target="28">
                    <mxGeometry relative="1" as="geometry"/>
                </mxCell>
                <mxCell id="27" value="Controller&lt;br&gt;Manager" style="sketch=0;html=1;dashed=0;whitespace=wrap;fillColor=#2875E2;strokeColor=#ffffff;points=[[0.005,0.63,0],[0.1,0.2,0],[0.9,0.2,0],[0.5,0,0],[0.995,0.63,0],[0.72,0.99,0],[0.5,1,0],[0.28,0.99,0]];verticalLabelPosition=bottom;align=center;verticalAlign=top;shape=mxgraph.kubernetes.icon;prIcon=c_m;labelBackgroundColor=none;strokeWidth=2;fontColor=#000000;" vertex="1" parent="1">
                    <mxGeometry x="-260" y="187" width="50" height="48" as="geometry"/>
                </mxCell>
                <mxCell id="28" value="Kube-API-Server&lt;br&gt;" style="sketch=0;html=1;dashed=0;whitespace=wrap;fillColor=#2875E2;strokeColor=#ffffff;points=[[0.005,0.63,0],[0.1,0.2,0],[0.9,0.2,0],[0.5,0,0],[0.995,0.63,0],[0.72,0.99,0],[0.5,1,0],[0.28,0.99,0]];verticalLabelPosition=bottom;align=center;verticalAlign=top;shape=mxgraph.kubernetes.icon;prIcon=api;labelBackgroundColor=none;strokeWidth=2;fontColor=#000000;" vertex="1" parent="1">
                    <mxGeometry x="-150" y="148" width="50" height="48" as="geometry"/>
                </mxCell>
                <mxCell id="89" value="" style="edgeStyle=none;html=1;strokeColor=#999900;fontSize=12;fontColor=#000000;startArrow=blockThin;startFill=1;fillColor=#FFFF33;" edge="1" parent="1" target="28">
                    <mxGeometry relative="1" as="geometry">
                        <mxPoint x="-40" y="270" as="sourcePoint"/>
                    </mxGeometry>
                </mxCell>
                <mxCell id="29" value="etcd" style="sketch=0;html=1;dashed=0;whitespace=wrap;fillColor=#2875E2;strokeColor=#ffffff;points=[[0.005,0.63,0],[0.1,0.2,0],[0.9,0.2,0],[0.5,0,0],[0.995,0.63,0],[0.72,0.99,0],[0.5,1,0],[0.28,0.99,0]];verticalLabelPosition=bottom;align=center;verticalAlign=top;shape=mxgraph.kubernetes.icon;prIcon=etcd;labelBackgroundColor=none;strokeWidth=2;fontColor=#000000;" vertex="1" parent="1">
                    <mxGeometry x="-50" y="263" width="50" height="50" as="geometry"/>
                </mxCell>
                <mxCell id="59" style="edgeStyle=none;html=1;strokeColor=#FF0000;fontColor=#000000;startArrow=block;entryX=0.5;entryY=0;entryDx=0;entryDy=0;entryPerimeter=0;" edge="1" parent="1" source="22" target="30">
                    <mxGeometry relative="1" as="geometry">
                        <mxPoint x="472" y="354.248433048433" as="sourcePoint"/>
                        <mxPoint x="512" y="354.62" as="targetPoint"/>
                    </mxGeometry>
                </mxCell>
                <mxCell id="30" value="jobs" style="sketch=0;html=1;dashed=0;whitespace=wrap;fillColor=#2875E2;strokeColor=#ffffff;points=[[0.005,0.63,0],[0.1,0.2,0],[0.9,0.2,0],[0.5,0,0],[0.995,0.63,0],[0.72,0.99,0],[0.5,1,0],[0.28,0.99,0]];verticalLabelPosition=bottom;align=center;verticalAlign=top;shape=mxgraph.kubernetes.icon;prIcon=job;labelBackgroundColor=none;strokeWidth=2;fontColor=#000000;" vertex="1" parent="1">
                    <mxGeometry x="491" y="372" width="40" height="38" as="geometry"/>
                </mxCell>
                <mxCell id="87" style="edgeStyle=none;html=1;entryX=0.5;entryY=1;entryDx=0;entryDy=0;entryPerimeter=0;strokeColor=#999900;fontSize=12;fontColor=#000000;startArrow=none;startFill=0;fillColor=#FFFF33;" edge="1" parent="1" source="31" target="28">
                    <mxGeometry relative="1" as="geometry"/>
                </mxCell>
                <mxCell id="31" value="Kube-Scheduler" style="sketch=0;html=1;dashed=0;whitespace=wrap;fillColor=#2875E2;strokeColor=#ffffff;points=[[0.005,0.63,0],[0.1,0.2,0],[0.9,0.2,0],[0.5,0,0],[0.995,0.63,0],[0.72,0.99,0],[0.5,1,0],[0.28,0.99,0]];verticalLabelPosition=bottom;align=center;verticalAlign=top;shape=mxgraph.kubernetes.icon;prIcon=sched;labelBackgroundColor=none;strokeWidth=2;fontColor=#000000;" vertex="1" parent="1">
                    <mxGeometry x="-142.5" y="265" width="50" height="48" as="geometry"/>
                </mxCell>
                <mxCell id="32" value="Kube-proxy" style="sketch=0;html=1;dashed=0;whitespace=wrap;fillColor=#2875E2;strokeColor=#ffffff;points=[[0.005,0.63,0],[0.1,0.2,0],[0.9,0.2,0],[0.5,0,0],[0.995,0.63,0],[0.72,0.99,0],[0.5,1,0],[0.28,0.99,0]];verticalLabelPosition=bottom;align=center;verticalAlign=top;shape=mxgraph.kubernetes.icon;prIcon=k_proxy;labelBackgroundColor=none;strokeWidth=2;fontColor=#000000;" vertex="1" parent="1">
                    <mxGeometry x="140" y="319" width="50" height="48" as="geometry"/>
                </mxCell>
                <mxCell id="46" style="edgeStyle=none;html=1;fontColor=#000000;shape=flexArrow;endWidth=7.619047619047619;endSize=4.609523809523809;strokeColor=#FF0000;startArrow=block;startWidth=7.619047619047619;startSize=6.39047619047619;exitX=0.995;exitY=0.63;exitDx=0;exitDy=0;exitPerimeter=0;entryX=0.061;entryY=0.38;entryDx=0;entryDy=0;entryPerimeter=0;" edge="1" parent="1" source="28" target="90">
                    <mxGeometry relative="1" as="geometry">
                        <mxPoint x="-95" y="167.60000000000014" as="sourcePoint"/>
                        <mxPoint x="100" y="178" as="targetPoint"/>
                    </mxGeometry>
                </mxCell>
                <mxCell id="54" value="" style="shape=callout;whiteSpace=wrap;html=1;perimeter=calloutPerimeter;labelBackgroundColor=none;strokeColor=#000000;strokeWidth=2;fontColor=#000000;fillColor=#FFFFFF;position2=0.09;" vertex="1" parent="1">
                    <mxGeometry x="263.96" y="204" width="58" height="76" as="geometry"/>
                </mxCell>
                <mxCell id="55" value="" style="shape=image;imageAspect=0;aspect=fixed;verticalLabelPosition=bottom;verticalAlign=top;labelBackgroundColor=none;strokeColor=#000000;strokeWidth=2;fontColor=#000000;fillColor=#4D4D4D;image=data:image/svg+xml,PHN2ZyB4bWxucz0iaHR0cDovL3d3dy53My5vcmcvMjAwMC9zdmciIHZpZXdCb3g9IjAgMCAzMiAzMiI+PHBhdGggZmlsbD0iIzAxOTYzOSIgZD0ibTE1Ljk0OCAyaC4wNjVhMTAuNDE4IDEwLjQxOCAwIDAgMSAuOTcyLjUyOHE1LjQyOSAzLjEyMiAxMC44NTggNi4yNDZhLjc5Mi43OTIgMCAwIDEgLjQxNC43ODhjLS4wMDggNC4zODkgMCA4Ljc3Ny0uMDA1IDEzLjE2NGEuODEzLjgxMyAwIDAgMSAtLjM1Ni41MDdxLTUuNzczIDMuMzI0LTExLjU0NyA2LjY0NGEuNTg3LjU4NyAwIDAgMSAtLjY1Ny4wMzdxLTUuNzgtMy4zMTQtMTEuNTQ5LTYuNjRhLjcuNyAwIDAgMSAtLjQtLjY2NnEwLTYuNTgyIDAtMTMuMTYzYS42OTMuNjkzIDAgMCAxIC4zODctLjY3cTUuNDIyLTMuMTE4IDEwLjg0NC02LjI0Yy4zMjItLjE4NC42MzgtLjM3OS45NzQtLjUzNSIvPjxwYXRoIGZpbGw9IiNmZmYiIGQ9Im04Ljc2NyAxMC41MzhxMCA1LjQyOSAwIDEwLjg1OWExLjUwOSAxLjUwOSAwIDAgMCAuNDI3IDEuMDg3IDEuNjQ3IDEuNjQ3IDAgMCAwIDIuMDYuMjA2IDEuNTY0IDEuNTY0IDAgMCAwIC42ODUtMS4yOTNjMC0yLjYyLS4wMDUtNS4yNCAwLTcuODZxMy41ODMgNC4yOSA3LjE4MSA4LjU2OGEyLjgzMyAyLjgzMyAwIDAgMCAyLjYuNzgyIDEuNTYxIDEuNTYxIDAgMCAwIDEuMjUxLTEuMzcxcS4wMDgtNS41NDEgMC0xMS4wODFhMS41ODIgMS41ODIgMCAwIDAgLTMuMTUyIDBjMCAyLjY2Mi0uMDE2IDUuMzIxIDAgNy45ODItMi4zNDYtMi43NjYtNC42NjMtNS41NTYtNy04LjMzMmEyLjgxNyAyLjgxNyAwIDAgMCAtMi42NDktMS4wNTIgMS41NzkgMS41NzkgMCAwIDAgLTEuNDAzIDEuNTA1eiIvPjwvc3ZnPg==;" vertex="1" parent="1">
                    <mxGeometry x="291.96000000000004" y="205" width="30" height="30" as="geometry"/>
                </mxCell>
                <mxCell id="47" value="" style="shape=image;imageAspect=0;aspect=fixed;verticalLabelPosition=bottom;verticalAlign=top;labelBackgroundColor=none;strokeColor=#000000;strokeWidth=2;fontColor=#000000;fillColor=#4D4D4D;image=data:image/svg+xml,PHN2ZyB4bWxucz0iaHR0cDovL3d3dy53My5vcmcvMjAwMC9zdmciIHdpZHRoPSIyNTUuOTk5OTg0NzQxMjEwOTQiIHZpZXdCb3g9IjAuMDAwMDExNDQ0MDkxNzk2ODc1IC0wLjAwMDAwMTkwNzM0ODYzMjgxMjUgMjU1Ljk5OTk4NDc0MTIxMDk0IDIyNy43NjcyODgyMDgwMDc4IiBwcmVzZXJ2ZUFzcGVjdFJhdGlvPSJ4TWlkWU1pZCIgaGVpZ2h0PSIyMjcuNzY3Mjg4MjA4MDA3OCI+PHBhdGggZmlsbD0iIzAwZDhmZiIgZD0ibTIxMC40ODMzODEgNzMuODIzNjM3NGMtMi42NTU2ODMtLjkxNDA4NzEtNS40MDc1MTQtMS43Nzg5NjEzLTguMjQwOTExLTIuNTk2OTAwNi40NjU3MDItMS45MDA2MjcuODkzMTI2LTMuNzc2NjQ3NCAxLjI3MzE2MS01LjYyMDc3MDQgNi4yMzgyMTItMzAuMjgxMDc0MiAyLjE1OTQ1MS01NC42NzU3MTg2LTExLjc2ODMwMy02Mi43MDc0NzM1Ny0xMy4zNTQ5NjktNy43MDEzODk0NC0zNS4xOTYwMDEuMzI4NTQyODQtNTcuMjU0MzkyIDE5LjUyNTI4NDc3LTIuMTIxMTc1IDEuODQ1OTQ1Ny00LjI0ODI3NCAzLjgwMDM0MjUtNi4zNzQ0NTkgNS44NDg2MDg1LTEuNDE2Ny0xLjM1NTE4MjEtMi44MzExMTktMi42NjQ3OTY0LTQuMjQxODkzLTMuOTE3NDUxMy0yMy4xMTc4MzktMjAuNTI2NDA2MTctNDYuMjg5OTAzOC0yOS4xNzY1MTQxNy02MC4yMDM5ODc0LTIxLjEyMTUxOTY1LTEzLjM0MjIwOTcgNy43MjM3MTc2NS0xNy4yOTMzODEgMzAuNjU3MDA3MjUtMTEuNjc4MDc4OCA1OS4zNTQ2MDU0NS41NDIyNTUxIDIuNzcxODgwNSAxLjE3NjEwMTEgNS42MDI1NDMzIDEuODkyODgwNCA4LjQ4MDU5NjQtMy4yNzk1MDQxLjkzMDk0NzEtNi40NDU1NDQ4IDEuOTIzNDEwNy05LjQ3NDg4MjYgMi45NzkyMTMzLTI3LjEwMzE4NTkgOS40NDkzNjQ3LTQ0LjQxMjUxNTYgMjQuMjU4ODUyNS00NC40MTI1MTU2IDM5LjYyMDE2NDcgMCAxNS44NjUyOTIgMTguNTgxNTc4NiAzMS43Nzg0MjggNDYuODExNjUyNiA0MS40MjczNzggMi4yMjc4MDI3Ljc2MTQzNiA0LjUzOTQ0OTkgMS40ODE0MDUgNi45MjE3MjcgMi4xNjQ5Mi0uNzczMjgzMSAzLjExMjcyNy0xLjQ0NTg2MTcgNi4xNjMwMjUtMi4wMTA0NDUxIDkuMTM4MTM4LTUuMzU0MTk5NCAyOC4xOTk1NDQtMS4xNzI5MTE0IDUwLjU5MTAzMyAxMi4xMzM3NTU0IDU4LjI2NTk5NCAxMy43NDQ1NzIgNy45MjYwMzkgMzYuODExODMwMS0uMjIxMDAzIDU5LjI3MzQ5NTEtMTkuODU1MTk0IDEuNzc1MzE2LTEuNTUyMDM1IDMuNTU3MDExLTMuMTk3OTM4IDUuMzQxODk2LTQuOTIzMTI5IDIuMzEzNDcxIDIuMjI3ODAyIDQuNjIzMjk0IDQuMzM2MjE3IDYuOTIwODE2IDYuMzEzODUzIDIxLjc1NjczMyAxOC43MjIzODMgNDMuMjQ1MDcyIDI2LjI4MjUxNCA1Ni41Mzk0MzUgMTguNTg2MTM3IDEzLjczMDkwMi03Ljk0ODgyNCAxOC4xOTMzNDMtMzIuMDAyNjIyIDEyLjM5OTg3LTYxLjI2Nzk5Mi0uNDQyNDYyLTIuMjM1MDk0LS45NTczNzYtNC41MTg0OS0xLjUzNTYyOS02Ljg0MjQzOSAxLjYxOTkzLS40Nzg5MTggMy4yMTAyNDEtLjk3MzMyNiA0Ljc2MDkwOS0xLjQ4NzMyOSAyOS4zNDc4NDktOS43MjM2ODIgNDguNDQyNTE4LTI1LjQ0MzE1NyA0OC40NDI1MTgtNDEuNTIwMzM3IDAtMTUuNDE2OTA0NC0xNy44Njc1MzQtMzAuMzI2MTg1Ny00NS41MTY2MTktMzkuODQ0MzU3NnptLTYuMzY1MzQ2IDcwLjk4MzkyNzZjLTEuMzk5ODM4LjQ2MzQyMi0yLjgzNjEzMS45MTEzNTMtNC4yOTk3NjQgMS4zNDU2MTItMy4yMzk4Ni0xMC4yNTY4MjMtNy42MTI1MzItMjEuMTYzNDQyLTEyLjk2MzU0Mi0zMi40MzE4NjcgNS4xMDYzMTItMTEuMDAwMDMzIDkuMzA5OTI3LTIxLjc2NzIxMzcgMTIuNDU5MTA4LTMxLjk1NzUwODYgMi42MTg3NzMuNzU3NzkwMSA1LjE2MDUzNyAxLjU1NzA0NjkgNy42MDk3OTkgMi40MDA1MDQyIDIzLjY4OTcxMiA4LjE1NTI0MzIgMzguMTQwMTI3IDIwLjIxMjkwMDQgMzguMTQwMTI3IDI5LjUwMzY4OTQgMCA5Ljg5NjM4NC0xNS42MDYwMSAyMi43NDMyNzMtNDAuOTQ1NzI4IDMxLjEzOTU3em0tMTAuNTE0MjgxIDIwLjgzNDQ0MmMyLjU2MTgxMyAxMi45NDA3NTkgMi45Mjc3MjEgMjQuNjQwNzEgMS4yMzA3ODIgMzMuNzg3MDUtMS41MjQ2OTMgOC4yMTg1ODMtNC41OTA5NDEgMTMuNjk4MDkzLTguMzgyMTcgMTUuODkyNjMyLTguMDY3NzU0IDQuNjY5NzczLTI1LjMyMDU3OC0xLjQwMDI5NC00My45MjcyMi0xNy40MTE4NTctMi4xMzMwMjItMS44MzU0NjYtNC4yODE1MzctMy43OTUzMy02LjQzNjg4Ny01Ljg2OTU3MSA3LjIxMzM2LTcuODg5MTI4IDE0LjQyMjYxOS0xNy4wNjA1MjkgMjEuNDU4NzIxLTI3LjI0NjI2OCAxMi4zNzU3MTktMS4wOTgxNzkgMjQuMDY3OTI1LTIuODkzNTQ2IDM0LjY3MTA2Mi01LjM0NDYzLjUyMjIwNSAyLjEwNjU5My45ODYwODQgNC4xNzI2MyAxLjM4NTcxMiA2LjE5MjY0NHptLTEwNi4zMjc1Njc0IDQ4Ljg3MjY3OWMtNy44ODIyOTMyIDIuNzgzNzI4LTE0LjE2MDE0OTEgMi44NjM0NzEtMTcuOTU1MDIzNS42NzUzMTItOC4wNzUwNDQyLTQuNjU3NDctMTEuNDMyMDEzMy0yMi42MzU3MzMtNi44NTI5MTk3LTQ2Ljc1MTk1OS41MjQ0ODM4LTIuNzYxODU2IDEuMTQ4NzYwNy01LjU5ODg5NyAxLjg2ODI3MzktOC40OTg4MjMgMTAuNDg2OTQwMiAyLjMxODkzOCAyMi4wOTM0Nzc4IDMuOTg3NjI1IDM0LjQ5ODgxNjEgNC45OTMzMDMgNy4wODM0OTI2IDkuOTY3MDE1IDE0LjUwMDk5NTYgMTkuMTI4MzkxIDIxLjk3NTkxMzYgMjcuMTUwMTIxLTEuNjMzMTQ1IDEuNTc2NjQtMy4yNTk5MTEgMy4wNzc2NC00Ljg3NzU2MiA0LjQ5MjA1OS05LjkzMjM4MiA4LjY4MjAwNi0xOS44ODU3MjQ1IDE0Ljg0MTg0MS0yOC42NTc0OTg0IDE3LjkzOTk4N3ptLTM2LjkyNzU3MjUtNjkuNzY3NzI3Yy0xMi40ODI4MDM2LTQuMjY2NDk5LTIyLjc5MTU3NDMtOS44MTE2MjctMjkuODU3NzUwNy0xNS44NjI1NTYtNi4zNDkzOTctNS40Mzc1ODgtOS41NTUwODE3LTEwLjgzNTk4OC05LjU1NTA4MTctMTUuMjE2NDA4IDAtOS4zMjE3NzUgMTMuODk3Njc5NC0yMS4yMTE3NDMzIDM3LjA3NjU3ODctMjkuMjkzMTY2OSAyLjgxMjQzNTctLjk4MDYxNiA1Ljc1NjU2MTktMS45MDQ3MjggOC44MTE4NzMzLTIuNzcyNzkxOCAzLjIwMzQwNjEgMTAuNDIwNDExNCA3LjQwNTY1NTMgMjEuMzE1MTgxNyAxMi40NzY4Nzk4IDMyLjMzMjA3MzctNS4xMzY4NDE5IDExLjE4MDQ4LTkuMzk4Nzg0NyAyMi4yNDg4NjUtMTIuNjMzNjMyNiAzMi43OTEzOTYtMi4xNzgxMzM5LS42MjYwOTktNC4yODgzNzItMS4yODUwMDctNi4zMTg4NjY4LTEuOTc4NTQ3em0xMi4zNzg0NTM3LTg0LjI1OTE1MTdjLTQuODExMDMzMi0yNC41ODczOTU1LTEuNjE1ODI5MS00My4xMzUyNTQxIDYuNDI0NTgzNy00Ny43ODk1MzQ0IDguNTY0NDQwOS00Ljk1ODIxNjY2IDI3LjUwMjgxMzggMi4xMTExNDkzIDQ3LjQ2MzI3MDUgMTkuODM0Njg5IDEuMjc1ODk0IDEuMTMyODEyIDIuNTU2ODAxIDIuMzE4NDgyMyAzLjg0MTM1MyAzLjU0NTE2MzctNy40MzgwMDggNy45ODY2NDMtMTQuNzg3NjE1IDE3LjA3OTIxMy0yMS44MDgyMjM2IDI2Ljk4NzQ0MzktMTIuMDM5ODg2OCAxLjExNTk1Mi0yMy41NjQ4NTgzIDIuOTA4NTgzNi0zNC4xNjExNjA3IDUuMzA5MDg3Ni0uNjY2MTk5My0yLjY3OTgzMzgtMS4yNTYzMDA0LTUuMzEyNzMyOS0xLjc1OTgyMjktNy44ODY4NDk4em0xMTAuNDI2ODMzMiAyNy4yNjcyMjk0Yy0yLjUzMzEwNS00LjM3NTQwNjMtNS4xMzM2NTItOC42NDczNzQtNy43ODQ3NzctMTIuODAyNjg4NCA4LjE2ODAwMiAxLjAzMjU2MyAxNS45OTM3OSAyLjQwMzIzODEgMjMuMzQyOTQyIDQuMDgwNTgzNi0yLjIwNjM4NyA3LjA3MTE4ODctNC45NTYzOTMgMTQuNDY0NTQwOS04LjE5MzUyIDIyLjA0MzgwOTEtMi4zMjIxMjctNC40MDg2NzA4LTQuNzc4MjI0LTguODUzNzk1Ni03LjM2NDY0NS0xMy4zMjE3MDQzem0tNDUuMDMxNzgtNDMuODYxMTQ2OGM1LjA0NDM0IDUuNDY0OTI5IDEwLjA5NTk3IDExLjU2NjQzOCAxNS4wNjQ2NjggMTguMTg2NTA2OS01LjAwNjk3NS0uMjM2NDk2MS0xMC4wNzU5MjEtLjM1OTUyODgtMTUuMTg2Nzg4LS4zNTk1Mjg4LTUuMDYyNTY3IDAtMTAuMDk0MTQ3LjEyMDI5ODctMTUuMDcwMTM2LjM1MjY5MzcgNC45NzM3MS02LjU1ODU1MjcgMTAuMDY5MDg1LTEyLjY1MTg1OTYgMTUuMTkyMjU2LTE4LjE3OTY3MTh6bS00NS4zMjAyMjI2IDQzLjkzNjc4OTFjLTIuNTMwMzcxOSA0LjM4NzcwOTYtNC45NDA5MDA5IDguODA4NjgzNy03LjIyNjU3NDUgMTMuMjM3ODYtMy4xODQ3MjM1LTcuNTUyODM5Mi01LjkwOTIxMzYtMTQuOTc5OTExNC04LjEzNDczNzktMjIuMTUxMzQ5MSA3LjMwNDAzOTUtMS42MzQ1MTE4IDE1LjA5MjkxODktMi45NzEwMTEgMjMuMjA4OTc0MS0zLjk4Mzk4LTIuNjg4NDkxNyA0LjE5MzU5MTItNS4zMTA0NTQ3IDguNDk3MDAwNy03Ljg0NzY2MTcgMTIuODk2NTU3OHptOC4wODE0MjM3IDY1LjM1MjIyYy04LjM4NTM2LS45MzU1MDQtMTYuMjkxMzQ4Mi0yLjIwMzE5NS0yMy41OTM1NjUxLTMuNzkyNTk2IDIuMjYxMDY3Mi03LjI5OTQ4MyA1LjA0NTcwNjYtMTQuODg1MTMgOC4yOTc4NzAxLTIyLjYwMDY0NiAyLjI5MTU5NzUgNC40MjU5ODcgNC43MTE2OTU3IDguODQ4Nzg0IDcuMjU3NTYwNiAxMy4yNDYwNjNoLjAwMDQ1NTZjMi41OTMyNTU0IDQuNDc5NzU2IDUuMjc5OTI0MyA4Ljg2NzkyIDguMDM3Njc4OCAxMy4xNDcxNzl6bTM3LjU0MTM2ODkgMzEuMDMwMjA2Yy01LjE4MzMyMS01LjU5MjUxOC0xMC4zNTM0MjctMTEuNzc4NzgyLTE1LjQwMjc3OS0xOC40MzMwMjcgNC45MDE3MTIuMTkyMjk1IDkuODk5MTE3LjI5MDcyMiAxNC45NzgwODkuMjkwNzIyIDUuMjE3OTUyIDAgMTAuMzc2MjEtLjExNzU2NSAxNS40NTMzNTktLjM0MzU4MS00Ljk4NTEwMyA2Ljc3NDA4OS0xMC4wMTg1MDUgMTIuOTY5OTIyLTE1LjAyODY2OSAxOC40ODU4ODZ6bTUyLjE5ODIwNS01Ny44MTY2OTZjMy40MjE2NzUgNy43OTg5MDQgNi4zMDYxMDggMTUuMzQ0OTA4IDguNTk2MzM4IDIyLjUxOTk5MS03LjQyMjUxNSAxLjY5MzI5My0xNS40MzY0OTggMy4wNTcxMzQtMjMuODgwMTg1IDQuMDcwNTU5IDIuNjU3NTA2LTQuMjExMzY0IDUuMjgwODM1LTguNTU2Njk2IDcuODU4NTk3LTEzLjAyNjQyNyAyLjYwNzgzOC00LjUyMjEzMyA1LjA4Mzk4NC05LjA1MTEwMiA3LjQyNTI1LTEzLjU2NDEyM3ptLTE2Ljg5ODMxIDguMTAwNTYyYy00LjAwMTc1MSA2LjkzODU4Ni04LjExMDEzMSAxMy41NjIzLTEyLjI4MDkzOCAxOS44MTQ2NC03LjU5NjU4NS41NDMxNjUtMTUuNDQ0NzAyLjgyMjk1MS0yMy40NDM2NDcuODIyOTUxLTcuOTY2NTkzIDAtMTUuNzE1ODMtLjI0NzQzMy0yMy4xNzc5ODgtLjczMTgxNy00LjMzODk1My02LjMzNDM1OS04LjUzNjY0NS0xMi45Nzc2NjctMTIuNTEyODc4OS0xOS44NDYwODFoLjAwMDkxMTRjLTMuOTY1NzUzMi02Ljg0OTcyOS03LjYxNTcyMjMtMTMuNzU3MzMxLTEwLjkyMzAyMjctMjAuNjI2MTk4IDMuMzA2Mzg5LTYuODg0ODE4IDYuOTQ2Nzg4OS0xMy44MDAxNjUgMTAuODg5NzU4Mi0yMC42Mzc1OTJsLS4wMDA5MTEzLjAwMTM2N2MzLjk1MzQ0OTYtNi44NTU2NTM4IDguMTE0MjMyMy0xMy40NjY2MDkzIDEyLjQxMzA4NDMtMTkuNzYxMzI1MyA3LjYxMzQ0NC0uNTc1NTE5MyAxNS40MjA1NTEtLjg3NTgxMDIgMjMuMzEwNTkxLS44NzU4MTAyaC4wMDA0NTZjNy45MjU1ODIgMCAxNS43NDI3MTMuMzAyNTY5MSAyMy4zNTM4NzguODgzMTAxMiA0LjIzMzIzNSA2LjI0ODY5MjYgOC4zNjU3NjYgMTIuODM4MjMxMSAxMi4zMzQ3MDkgMTkuNjk0Nzk2NCA0LjAxNDA1NiA2LjkzMzU3NDkgNy43MDEzOSAxMy44MDI4OTc5IDExLjAzNjAzIDIwLjU0MDA3NjktMy4zMjQ2MTUgNi44NTI5MTktNy4wMDM3NDcgMTMuNzkxNTA3LTExLjAwMDAzMiAyMC43MjE4OTF6bTIyLjU2MDA5MS0xMjIuMTI0MDUxMmM4LjU3MjY0NCA0Ljk0MzYzNSAxMS45MDYzNzIgMjQuODgxMzA3IDYuNTIwMjc2IDUxLjAyNTc0OTQtLjM0MzU4MSAxLjY2ODIzMTktLjczMDQ0OSAzLjM2NzQ0OTctMS4xNTA1ODQgNS4wODk0NTE0LTEwLjYyMDkwOS0yLjQ1MDYyODUtMjIuMTU0MDgzLTQuMjc0MjQ2LTM0LjIyOTA1NC01LjQwNzA1OC03LjAzNDI4LTEwLjAxNzEzNzctMTQuMzIzNzM4LTE5LjEyMzgzMzctMjEuNjQwNTM3LTI3LjAwNzk0OTYgMS45NjcxNTYtMS44OTI0MjQ1IDMuOTMxNTc4LTMuNjk2OTAzOCA1Ljg4Nzc5Ny01LjM5OTc2NyAxOC44OTk2NDEtMTYuNDQ3NjQ1MyAzNi41NjM5NDMtMjIuOTQxNDkxOTQgNDQuNjEyMTAyLTE4LjMwMDQyNjJ6bS01OC4yODQ2NzYgNzguNDM1MTQ5OGMxMi42MjQ5NzQgMCAyMi44NTk5MjUgMTAuMjM0NDk1NCAyMi44NTk5MjUgMjIuODU5OTI1NCAwIDEyLjYyNDk3NC0xMC4yMzQ5NTEgMjIuODU5OTI3LTIyLjg1OTkyNSAyMi44NTk5MjctMTIuNjI0OTc1IDAtMjIuODU5OTI2LTEwLjIzNDk1My0yMi44NTk5MjYtMjIuODU5OTI3IDAtMTIuNjI1NDMgMTAuMjM0OTUxLTIyLjg1OTkyNTQgMjIuODU5OTI2LTIyLjg1OTkyNTR6Ii8+PC9zdmc+;" vertex="1" parent="1">
                    <mxGeometry x="263.96" y="220.03999999999996" width="29.1" height="25.92" as="geometry"/>
                </mxCell>
                <mxCell id="56" value="" style="shape=callout;whiteSpace=wrap;html=1;perimeter=calloutPerimeter;labelBackgroundColor=none;strokeColor=#000000;strokeWidth=2;fontColor=#000000;fillColor=#FFFFFF;position2=0.38;" vertex="1" parent="1">
                    <mxGeometry x="347.96000000000004" y="205" width="60.08" height="76" as="geometry"/>
                </mxCell>
                <mxCell id="48" value="" style="shape=image;imageAspect=0;aspect=fixed;verticalLabelPosition=bottom;verticalAlign=top;labelBackgroundColor=none;strokeColor=#000000;strokeWidth=2;fontColor=#000000;fillColor=#4D4D4D;image=data:image/svg+xml,PHN2ZyB4bWxucz0iaHR0cDovL3d3dy53My5vcmcvMjAwMC9zdmciIHdpZHRoPSIyNCIgdmlld0JveD0iMCAwIDI0IDI0IiBoZWlnaHQ9IjI0Ij48ZyBmaWxsPSJub25lIj48cGF0aCBmaWxsPSIjOGNjNWU3IiBkPSJtMjEuNDY3OTUzNyAzLjIwNjE3NzYxYy43MTM1MTM1IDEuNDczMzU5MDctMS40NTQ4MjYzIDEuNjMwODg4MDMtMS4zNDM2Mjk0IDIuMjg4ODAzMDguMjAzODYxIDEuMTg2MTAwMzkuMDY0ODY0OSAyLjk0NjcxODE1LS4wOTI2NjQxIDQuNjc5NTM2NzEtLjI2ODcyNTggMi45Mzc0NTE3IDEuOTI3NDEzMiA5Ljk3MDY1NjMtMi42NTAxOTMgMTIuNzk2OTExMi0uODYxNzc2MS41Mzc0NTE3LTIuOTA5NjUyNS44MzM5NzY4LTQuOTI5NzI5Ny44ODAzMDg5aC0uMDA5MjY2NS0uMDA5MjY2NGMtMi4wMjAwNzcyLS4wNDYzMzIxLTQuMzQ1OTQ1OTEtLjM0Mjg1NzItNS4yMDc3MjE5Ny0uODgwMzA4OS00LjU2ODMzOTc3LTIuODI2MjU0OS0yLjM3MjIwMDc4LTkuODU5NDU5NS0yLjYzMTY2MDI0LTEyLjc5NjkxMTItLjE2Njc5NTM2LTEuNzMyODE4NTYtLjMwNTc5MTUtMy40OTM0MzYzMi0uMDkyNjY0MDktNC42Nzk1MzY3MS4xMTExOTY5MS0uNjU3OTE1MDUtMi4wNTcxNDI4Ni0uODA2MTc3Ni0xLjM0MzYyOTM0LTIuMjg4ODAzMDguNjExNTgzMDEtMS4yNjk0OTgwNyAyLjEyMjAwNzcyLS4xNDgyNjI1NSAyLjUwMTkzMDUtLjU0NjcxODE1IDEuOTM2Njc5NTQtMi4wMTA4MTA4MSA0LjI5MDM0NzQ5LTIuNTQ4MjYyNTUgNi4xNDM2MjkzNC0yLjU5NDU5NDZoMS4wMTkzMDVjMS44NDQwMTU1LjA5MjY2NDEgNC4xOTc2ODM0LjU5MzA1MDIgNi4xNDM2Mjk0IDIuNTk0NTk0Ni4zNzk5MjI3LjM5ODQ1NTYgMS44ODEwODEtLjcyMjc3OTkyIDIuNTAxOTMwNS41NDY3MTgxNXptLTEwLjAzNTUyMTMgNy43MDAzODYwOWMtLjA4MzM5NzcuMDM3MDY1Ni0uMjIyMzkzOC45NDUxNzM4LjIwMzg2MS45OTE1MDU4LjI4NzI1ODcuMDI3Nzk5MiAxLjA3NDkwMzUuMTIwNDYzMyAxLjI2MDIzMTcgMCAuMzYxMzktLjIzMTY2MDIuMzI0MzI0My0uNzg3NjQ0OC4xMjA0NjMzLS45MjY2NDA5LS4zNDI4NTcxLS4yMjIzOTM5LTEuNDkxODkxOS0uMTExMTk2OS0xLjU4NDU1Ni0uMDY0ODY0OXptLTIuMzUzNjY3OTItNi44MDE1NDQzOWMtLjk1NDQ0MDE2LS4xMTExOTY5Mi0yLjU1NzUyODk2Ljc3ODM3ODM3LTIuNzk4NDU1NiAyLjY2ODcyNTg2LS4yNTk0NTk0NiAxLjk2NDQ3ODc3IDIuMDU3MTQyODYgMy45MTA0MjQ3MyA0LjI4MTA4MTEyIDEuOTY0NDc4NzcgMS4xOTUzNjY4LTEuMDQ3MTA0MjUgMS42MTIzNTUyLTQuMjcxODE0NjctMS40ODI2MjU1Mi00LjYzMzIwNDYzem02LjQ0OTQyMDgyIDBjLTMuMDk0OTgwNy4zNjEzODk5Ni0yLjY3Nzk5MjIgMy41ODYxMDAzOC0xLjQ4MjYyNTUgNC42MzMyMDQ2MyAyLjIyMzkzODMgMS45NDU5NDU5NiA0LjU0MDU0MDYgMCA0LjI4MTA4MTEtMS45NjQ0Nzg3Ny0uMjMxNjYwMi0xLjg5MDM0NzQ5LTEuODM0NzQ5LTIuNzc5OTIyNzgtMi43OTg0NTU2LTIuNjY4NzI1ODZ6Ii8+PHBhdGggZmlsbD0iI2I4OTM3ZiIgZD0ibTEyLjMxMjc0MTMgOC45ODg0MTY5OWMuNTgzNzgzOC0uMDgzMzk3NjggMS45ODMwMTE2LjU4Mzc4Mzc4IDEuODkwMzQ3NSAxLjM3MTQyODYxLS4xMTExOTY5LjkxNzM3NDUtMy42MDQ2MzMyIDEuMDM3ODM3OC0zLjc4OTk2MTQtLjA1NTU5ODUtLjExMTE5NjktLjY2NzE4MTQ2LjQxNjk4ODQtMS4wOTM0MzYyOSAxLjg5OTYxMzktMS4zMTU4MzAxMXptNy44ODU3MTQzIDcuMzg1MzI4MjFjLS4yODcyNTg3LS4wMDkyNjY0LS40NzI1ODY5LS4zODkxODkyLS40NzI1ODY5LS42MjA4NDk0IDAtLjQxNjk4ODUuMDU1NTk4NS0uOTA4MTA4Mi4zNjEzOS0xLjEyMTIzNTYuNjMwMTE1OC0uNDM1NTIxMiAxLjEzMDUwMTkgMS43NTEzNTE0LjExMTE5NjkgMS43NDIwODV6bS0xNS43ODA2OTQ5OCAwYy0xLjAxOTMwNTAyLjAwOTI2NjQtLjUxODkxODkyLTIuMTc3NjA2Mi4xMTExOTY5MS0xLjc0MjA4NS4zMDU3OTE1LjIxMzEyNzQuMzYxMzg5OTYuNzA0MjQ3MS4zNjEzODk5NiAxLjEyMTIzNTYgMCAuMjMxNjYwMi0uMTg1MzI4MTguNjExNTgzLS40NzI1ODY4Ny42MjA4NDk0em0xMy44NDQwMTU0OCA2LjcxODE0NjdjLjE4NTMyODEuMjY4NzI1OS4xOTQ1OTQ2LjQ1NDA1NC0uMTAxOTMwNS41OTMwNTAyLTEuMTMwNTAyLjUxODkxODktMi4xNDA1NDA2LS4xNzYwNjE4LTEuNzYwNjE3OC0uMzcwNjU2NC44MDYxNzc2LS40MDc3MjIgMS4zMDY1NjM3LTEuMDQ3MTA0MiAxLjg2MjU0ODMtLjIyMjM5Mzh6bS0xMS45MDczMzU5NS4wOTI2NjQxYy41NTU5ODQ1Ni0uODI0NzEwNCAxLjA1NjM3MDY2LS4xODUzMjgyIDEuODYyNTQ4MjcuMjIyMzkzOC4zNzk5MjI3OC4xOTQ1OTQ2LS42MzAxMTU4My44ODk1NzUzLTEuNzYwNjE3NzYuMzcwNjU2NC0uMjk2NTI1MS0uMTM4OTk2Mi0uMjg3MjU4NjktLjMyNDMyNDMtLjEwMTkzMDUxLS41OTMwNTAyeiIvPjxwYXRoIGZpbGw9IiMwMDAiIGQ9Im0xOS43MzUxMzUxIDMuNDI4NTcxNDNjLjA0NjMzMjEtLjE5NDU5NDYuNTI4MTg1NC0uMjg3MjU4NjkuNzk2OTExMi4wNDYzMzIwNC4zMjQzMjQ0LjM5ODQ1NTYtLjQ3MjU4NjguOTQ1MTczNzUtLjUwOTY1MjUuNzIyNzc5OTMtLjA5MjY2NDEtLjYwMjMxNjYtLjM0Mjg1NzEtLjU3NDUxNzM4LS4yODcyNTg3LS43NjkxMTE5N3ptLTE0Ljg1NDA1NDAyIDBjLjA1NTU5ODQ2LjE5NDU5NDU5LS4xOTQ1OTQ1OS4xNjY3OTUzNy0uMjg3MjU4NjkuNzY5MTExOTctLjAzNzA2NTYzLjIyMjM5MzgyLS44MzM5NzY4My0uMzI0MzI0MzMtLjUwOTY1MjUxLS43MjI3Nzk5My4yNTk0NTk0Ni0uMzMzNTkwNzMuNzQxMzEyNzUtLjI0MDkyNjY0Ljc5NjkxMTItLjA0NjMzMjA0em0xMC44NjAyMzE2MiA0LjUxMjc0MTMxYy0uNTgzNDE3NCAwLTEuMDU2MzcwNi0uNDcyOTUzMjUtMS4wNTYzNzA2LTEuMDU2MzcwNjYgMC0uNTgzNDE3NC40NzI5NTMyLTEuMDU2MzcwNjUgMS4wNTYzNzA2LTEuMDU2MzcwNjVzMS4wNTYzNzA3LjQ3Mjk1MzI1IDEuMDU2MzcwNyAxLjA1NjM3MDY1YzAgLjU4MzQxNzQxLS40NzI5NTMzIDEuMDU2MzcwNjYtMS4wNTYzNzA3IDEuMDU2MzcwNjZ6bS0uMjc3OTkyMi0xLjE3NjgzMzk4Yy4xODQyMzcgMCAuMzMzNTkwNy0uMTQ5MzUzNjUuMzMzNTkwNy0uMzMzNTkwNzMgMC0uMTg0MjM3MDctLjE0OTM1MzctLjMzMzU5MDczLS4zMzM1OTA3LS4zMzM1OTA3My0uMTg0MjM3MSAwLS4zMzM1OTA4LjE0OTM1MzY2LS4zMzM1OTA4LjMzMzU5MDczIDAgLjE4NDIzNzA4LjE0OTM1MzcuMzMzNTkwNzMuMzMzNTkwOC4zMzM1OTA3M3ptLTQuMTA1MDE5MyAyLjY2ODcyNTg3Yy4xMTExOTY5LS40MjYyNTQ4Mi41MDAzODYxLS41NjUyNTA5Ni44MTU0NDQtLjU3NDUxNzM3LjgwNjE3NzYtLjAxODUzMjgyIDEuMTExOTY5MS40MTY5ODg0MiAxLjEzOTc2ODMuNzU5ODQ1NTYuMDU1NTk4NS41ODM3ODM3OC0yLjIwNTQwNTQuNzIyNzc5ODgtMS45NTUyMTIzLS4xODUzMjgxOXptLTIuNDgzMzk3NzMtMS40OTE4OTE4OWMtLjU4MzQxNzQgMC0xLjA1NjM3MDY1LS40NzI5NTMyNS0xLjA1NjM3MDY1LTEuMDU2MzcwNjYgMC0uNTgzNDE3NC40NzI5NTMyNS0xLjA1NjM3MDY1IDEuMDU2MzcwNjUtMS4wNTYzNzA2NS41ODM0MTc0MSAwIDEuMDU2MzcwNjYuNDcyOTUzMjUgMS4wNTYzNzA2NiAxLjA1NjM3MDY1IDAgLjU4MzQxNzQxLS40NzI5NTMyNSAxLjA1NjM3MDY2LTEuMDU2MzcwNjYgMS4wNTYzNzA2NnptLjI3Nzk5MjI4LTEuMTc2ODMzOThjLjE4NDIzNzA4IDAgLjMzMzU5MDc0LS4xNDkzNTM2NS4zMzM1OTA3NC0uMzMzNTkwNzMgMC0uMTg0MjM3MDctLjE0OTM1MzY2LS4zMzM1OTA3My0uMzMzNTkwNzQtLjMzMzU5MDczLS4xODQyMzcwNyAwLS4zMzM1OTA3My4xNDkzNTM2Ni0uMzMzNTkwNzMuMzMzNTkwNzMgMCAuMTg0MjM3MDguMTQ5MzUzNjYuMzMzNTkwNzMuMzMzNTkwNzMuMzMzNTkwNzN6Ii8+PC9nPjwvc3ZnPg==;" vertex="1" parent="1">
                    <mxGeometry x="361.04" y="211" width="31.96" height="31.96" as="geometry"/>
                </mxCell>
                <mxCell id="57" value="" style="shape=callout;whiteSpace=wrap;html=1;perimeter=calloutPerimeter;labelBackgroundColor=none;strokeColor=#000000;strokeWidth=2;fontColor=#000000;fillColor=#FFFFFF;position2=0.38;" vertex="1" parent="1">
                    <mxGeometry x="439.92" y="196" width="60.08" height="76" as="geometry"/>
                </mxCell>
                <mxCell id="51" value="" style="shape=image;imageAspect=0;aspect=fixed;verticalLabelPosition=bottom;verticalAlign=top;labelBackgroundColor=none;strokeColor=#000000;strokeWidth=2;fontColor=#000000;fillColor=#4D4D4D;image=data:image/svg+xml,PHN2ZyB4bWxucz0iaHR0cDovL3d3dy53My5vcmcvMjAwMC9zdmciIHZpZXdCb3g9IjAgMCAxMjggMTI4Ij48cGF0aCBmaWxsPSIjMDA2MThhIiBkPSJtMi4wMDEgOTAuNDU4aDQuMTA4di0xNi4yMjNsNi4zNiAxNC4xNDNjLjc1IDEuNzEyIDEuNzc3IDIuMzE3IDMuNzkyIDIuMzE3czMuMDAzLS42MDUgMy43NTMtMi4zMTdsNi4zNi0xNC4xNDN2MTYuMjIzaDQuMTA4di0xNi4xOTZjMC0xLjU4LS42MzItMi4zNDUtMS45MzYtMi43MzktMy4xMjEtLjk3NC01LjIxNS0uMTMxLTYuMTYzIDEuOTc2bC02LjI0MSAxMy45NTgtNi4wNDMtMTMuOTU5Yy0uOTA5LTIuMTA2LTMuMDQyLTIuOTQ5LTYuMTYzLTEuOTc2LTEuMzA0LjM5NS0xLjkzNiAxLjE1OS0xLjkzNiAyLjczOXYxNi4xOTd6bTMxLjg5OC0xMy4yMDZoNC4xMDd2OC45MzhjLS4wMzguNDg1LjE1NiAxLjYyNSAyLjQwNiAxLjY2MSAxLjE0OC4wMTggOC44NjIgMCA4LjkzNCAwdi0xMC42NDNoNC4xMTdjLjAxOSAwLS4wMDQgMTQuNTE0LS4wMDQgMTQuNTc0LjAyMiAzLjU4LTQuNDQxIDQuMzU3LTYuNDk5IDQuNDE3aC0xMi45NzJ2LTIuNzY0Yy4wMjIgMCAxMi45NjMuMDAzIDEyLjk5NS0uMDAxIDIuNjQ1LS4yNzkgMi4zMzItMS41OTMgMi4zMzEtMi4wMzV2LTEuMDc4aC04LjczMWMtNC4wNjItLjAzNy02LjY1LTEuODEtNi42ODMtMy44NS0uMDAyLS4xODcuMDg5LTkuMTI5LS4wMDEtOS4yMTl6Ii8+PHBhdGggZmlsbD0iI2U0OGUwMCIgZD0ibTU2LjYzIDkwLjQ1OGgxMS44MTJjMS4zODMgMCAyLjcyNy0uMjg5IDMuNzkzLS43ODkgMS43NzctLjgxNiAyLjY0Ni0xLjkyMiAyLjY0Ni0zLjM3MnYtMy4wMDJjMC0xLjE4NS0uOTg3LTIuMjkyLTIuOTIzLTMuMDI4LTEuMDI3LS4zOTYtMi4yOTItLjYwNS0zLjUxNy0uNjA1aC00Ljk3OGMtMS42NTkgMC0yLjQ0OS0uNS0yLjY0Ni0xLjYwNi0uMDM5LS4xMzItLjAzOS0uMjM3LS4wMzktLjM2OXYtMS44N2MwLS4xMDUgMC0uMjExLjAzOS0uMzQyLjE5Ny0uODQzLjYzMi0xLjA4IDIuMDk0LTEuMjEybC4zOTUtLjAyNmgxMS43MzN2LTIuNzM4aC0xMS41MzVjLTEuNjU5IDAtMi41MjguMTA1LTMuMzE4LjM0Mi0yLjQ0OS43NjQtMy41MTcgMS45NzUtMy41MTcgNC4wODJ2Mi4zOTZjMCAxLjg0NCAyLjA5NSAzLjQyNCA1LjYxIDMuNzkzLjM5Ni4wMjUuNzkuMDUzIDEuMTg1LjA1M2g0LjI2N2MuMTU4IDAgLjMxNiAwIC40MzUuMDI1IDEuMzA0LjEwNSAxLjg1Ni4zNDMgMi4yNTIuODE2LjIzNy4yMzcuMzE1LjQ3NS4zMTUuNzM3djIuMzk3YzAgLjI4OS0uMTk3LjY1OC0uNTkyLjk3NC0uMzU1LjMxNi0uOTQ4LjUyNy0xLjczOC41OGwtLjQzNS4wMjZoLTExLjMzOHptNDMuODgxLTQuNzY2YzAgMi44MTcgMi4wOTQgNC4zOTcgNi4zMiA0LjcxNC4zOTUuMDI2Ljc5LjA1MiAxLjE4NS4wNTJoMTAuNzA2di0yLjczOGgtMTAuNzg0Yy0yLjQxIDAtMy4zMTgtLjYwNi0zLjMxOC0yLjA1NXYtMTQuMTY4aC00LjEwOHYxNC4xOTV6bS0yMy4wMDguMTQydi05Ljc2NWMwLTIuNDggMS43NDItMy45ODUgNS4xODYtNC40Ni4zNTYtLjA1My43NTMtLjA3OSAxLjEwOC0uMDc5aDcuNzk5Yy4zOTYgMCAuNzUyLjAyNiAxLjE0Ny4wNzkgMy40NDQuNDc1IDUuMTg3IDEuOTc5IDUuMTg3IDQuNDZ2OS43NjVjMCAyLjAxNC0uNzQgMy4wOS0yLjQ0NSAzLjc5Mmw0LjA0OCAzLjY1M2gtNC43NzFsLTMuMjc0LTIuOTU2LTMuMjk2LjIwOWgtNC4zOTVjLS43NTIgMC0xLjU0My0uMTA1LTIuNDE0LS4zNDMtMi42MTMtLjcxMi0zLjg4LTIuMDg1LTMuODgtNC4zNTV6bTQuNDM0LS4yMzdjMCAuMTMyLjAzOS4yNjUuMDc5LjQyMy4yMzcgMS4xMzUgMS4zMDcgMS43NjggMi45MjkgMS43NjhoMy43MzJsLTMuNDI4LTMuMDk1aDQuNzcxbDIuOTg5IDIuN2MuNTUyLS4yOTUuOTE0LS43NDMgMS4wNDEtMS4zMi4wMzktLjEzMi4wMzktLjI2NC4wMzktLjM5NnYtOS4zNjhjMC0uMTA1IDAtLjIzOC0uMDM5LS4zNy0uMjM4LTEuMDU2LTEuMzA3LTEuNjYyLTIuODktMS42NjJoLTYuMjE2Yy0xLjgyIDAtMy4wMDguNzkyLTMuMDA4IDIuMDMydjkuMjg4eiIvPjxwYXRoIGZpbGw9IiMwMDYxOGEiIGQ9Im0xMjIuMzM2IDY2Ljk1MmMtMi41MjUtLjA2OS00LjQ1NC4xNjYtNi4xMDQuODYxLS40NjkuMTk4LTEuMjE2LjIwMy0xLjI5Mi43OS4yNTcuMjcxLjI5Ny42NzQuNTAyIDEuMDA2LjM5NC42MzcgMS4wNTkgMS40OTEgMS42NTIgMS45MzguNjQ3LjQ4OSAxLjMxNSAxLjAxMyAyLjAxMSAxLjQzNyAxLjIzNS43NTQgMi42MTUgMS4xODQgMy44MDYgMS45MzguNzAxLjQ0NiAxLjM5NyAxLjAwNiAyLjA4MiAxLjUwOS4zMzkuMjQ3LjU2NS42MzQgMS4wMDYuNzg5di0uMDcxYy0uMjMxLS4yOTQtLjI5MS0uNjk4LS41MDMtMS4wMDZsLS45MzQtLjkzNGMtLjkxMy0xLjIxMi0yLjA3MS0yLjI3NS0zLjMwNC0zLjE1OS0uOTgyLS43MDUtMy4xOC0xLjY1OC0zLjU5LTIuODAxbC0uMDcyLS4wNzFjLjY5Ni0uMDc5IDEuNTEyLS4zMzEgMi4xNTQtLjUwMyAxLjA4LS4yOSAyLjA0NS0uMjE1IDMuMTYtLjUwM2wxLjUwOC0uNDMydi0uMjg2Yy0uNTYzLS41NzgtLjk2Ni0xLjM0NC0xLjU4LTEuODY3LTEuNjA3LTEuMzY5LTMuMzYzLTIuNzM3LTUuMTctMy44NzktMS4wMDItLjYzMi0yLjI0MS0xLjA0My0zLjMwNC0xLjU3OS0uMzU2LS4xODEtLjk4NC0uMjc0LTEuMjIxLS41NzUtLjU1OS0uNzExLS44NjItMS42MTItMS4yOTMtMi40NDEtLjktMS43MzUtMS43ODYtMy42MzEtMi41ODUtNS40NTgtLjU0NC0xLjI0NS0uOS0yLjQ3My0xLjU3OS0zLjU5LTMuMjYxLTUuMzYxLTYuNzcxLTguNTk3LTEyLjIwOC0xMS43NzctMS4xNTctLjY3Ny0yLjU1LS45NDMtNC4wMjEtMS4yOTJsLTIuMzctLjE0NGMtLjQ4MS0uMjAxLS45ODMtLjc5MS0xLjQzNi0xLjA3Ny0xLjgwMi0xLjEzOC02LjQyMi0zLjYxMy03Ljc1Ni0uMzU4LS44NDIgMi4wNTQgMS4yNiA0LjA1OCAyLjAxMSA1LjA5OS41MjcuNzMgMS4yMDMgMS41NDggMS41OCAyLjM2OS4yNDguNTQuMjkgMS4wODEuNTAzIDEuNjUyLjUyMSAxLjQwNi45NzYgMi45MzcgMS42NTEgNC4yMzYuMzQxLjY1OC43MTggMS4zNTEgMS4xNDkgMS45MzkuMjY0LjM2LjcxOC41Mi43ODkgMS4wNzctLjQ0My42Mi0uNDY5IDEuNTg0LS43MTggMi4zNjktMS4xMjIgMy41MzktLjY5OSA3LjkzOC45MzQgMTAuNTU3LjUwMS44MDUgMS42ODEgMi41MjkgMy4zMDMgMS44NjcgMS40MTktLjU3OCAxLjEwMy0yLjM2OSAxLjUwOS0zLjk1LjA5Mi0uMzU3LjAzNS0uNjIxLjIxNS0uODYxdi4wNzJsMS4yOTMgMi41ODVjLjk1NyAxLjU0MSAyLjY1NCAzLjE1IDQuMDkzIDQuMjM3Ljc0Ni41NjMgMS4zMzQgMS41MzggMi4yOTggMS44Njd2LS4wNzNoLS4wNzFjLS4xODgtLjI5MS0uNDc5LS40MTEtLjcxOS0uNjQ2LS41NjItLjU1MS0xLjE4Ny0xLjIzNS0xLjY1MS0xLjg2Ny0xLjMwOS0xLjc3Ni0yLjQ2NS0zLjcyMS0zLjUxOS01Ljc0NS0uNTAzLS45NjYtLjk0LTIuMDMyLTEuMzY0LTMuMDE2LS4xNjQtLjM3OS0uMTYyLS45NTMtLjUwMi0xLjE0OC0uNDY2LjcyLTEuMTQ5IDEuMzAzLTEuNTA5IDIuMTU0LS41NzQgMS4zNi0uNjQ4IDMuMDE5LS44NjEgNC43MzlsLS4xNDQuMDcxYy0xLjAwMS0uMjQxLTEuMzUyLTEuMjcxLTEuNzI0LTIuMTU0LS45NC0yLjIzMy0xLjExNS01LjgzLS4yODctOC40MDEuMjE0LS42NjYgMS4xODEtMi43NjEuNzg5LTMuMzc2LS4xODctLjYxMy0uODA0LS45NjctMS4xNDgtMS40MzctLjQyNy0uNTc5LS44NTQtMS4zNDEtMS4xNDktMi4wMTEtLjc3LTEuNzQxLTEuMTI5LTMuNjk2LTEuOTM4LTUuNDU3LS4zODgtLjg0Mi0xLjA0Mi0xLjY5My0xLjU4LTIuNDQxLS41OTUtLjgzLTEuMjYyLTEuNDQtMS43MjQtMi40NDItLjE2NC0uMzU2LS4zODctLjkyNy0uMTQ0LTEuMjkzLjA3Ny0uMjQ3LjE4OC0uMzUuNDMyLS40MzEuNDE2LS4zMjEgMS41NzYuMTA3IDIuMDEuMjg3IDEuMTUyLjQ3OSAyLjExMy45MzQgMy4wODkgMS41OC40NjguMzExLjk0MS45MTEgMS41MDggMS4wNzdoLjY0NmMxLjAxMS4yMzIgMi4xNDQuMDcxIDMuMDg4LjM1OCAxLjY3LjUwOCAzLjE2NiAxLjI5NyA0LjUyNCAyLjE1NSA0LjEzOSAyLjYxNCA3LjUyMiA2LjMzNCA5LjgzOCAxMC43NzIuMzcyLjcxNS41MzQgMS4zOTYuODYxIDIuMTU0LjY2MiAxLjUyOCAxLjQ5NiAzLjEwMSAyLjE1NCA0LjU5Ni42NTcgMS40OTEgMS4yOTggMi45OTYgMi4yMjcgNC4yMzcuNDg4LjY1MiAyLjM3NCAxLjAwMiAzLjIzMSAxLjM2NC42MDEuMjU0IDEuNTg1LjUxOSAyLjE1NC44NjEgMS4wODcuNjU2IDIuMTQxIDEuNDM3IDMuMTYgMi4xNTUuNTA5LjM2MiAyLjA3NiAxLjE0OSAyLjE1NCAxLjc5OHptLTMyLjA5OS0yNy4zNTljLS41MjYtLjAxLS44OTkuMDU4LTEuMjkzLjE0NHYuMDcxaC4wNzJjLjI1MS41MTcuNjk0Ljg0OSAxLjAwNSAxLjI5M2wuNzE5IDEuNTA4LjA3MS0uMDcxYy40NDUtLjMxMy42NDgtLjgxNC42NDYtMS41OC0uMTc5LS4xODgtLjIwNS0uNDIzLS4zNTktLjY0Ni0uMjA0LS4zLS42MDItLjQ2OC0uODYxLS43MTl6Ii8+PC9zdmc+;" vertex="1" parent="1">
                    <mxGeometry x="444.96000000000004" y="196" width="50" height="50" as="geometry"/>
                </mxCell>
                <mxCell id="64" style="edgeStyle=none;html=1;fontColor=#000000;shape=flexArrow;endWidth=7.619047619047619;endSize=4.609523809523809;strokeColor=#00994D;startArrow=block;startWidth=7.619047619047619;startSize=4.609523809523809;exitX=0.9;exitY=0.2;exitDx=0;exitDy=0;exitPerimeter=0;fillColor=#33FF99;" edge="1" parent="1">
                    <mxGeometry relative="1" as="geometry">
                        <mxPoint x="367.5500000000002" y="284.5699999999999" as="sourcePoint"/>
                        <mxPoint x="420" y="284.46999999999997" as="targetPoint"/>
                    </mxGeometry>
                </mxCell>
                <mxCell id="65" style="edgeStyle=none;html=1;fontColor=#000000;shape=flexArrow;endWidth=7.619047619047619;endSize=4.609523809523809;strokeColor=#0000CC;startArrow=block;startWidth=7.619047619047619;startSize=6.39047619047619;fillColor=#99CCFF;exitX=0.5;exitY=0;exitDx=0;exitDy=0;exitPerimeter=0;" edge="1" parent="1" source="6" target="21">
                    <mxGeometry relative="1" as="geometry">
                        <mxPoint x="183" y="260" as="sourcePoint"/>
                        <mxPoint x="209.22" y="210" as="targetPoint"/>
                    </mxGeometry>
                </mxCell>
                <mxCell id="21" value="Ingress" style="sketch=0;html=1;dashed=0;whitespace=wrap;fillColor=#2875E2;strokeColor=#ffffff;points=[[0.005,0.63,0],[0.1,0.2,0],[0.9,0.2,0],[0.5,0,0],[0.995,0.63,0],[0.72,0.99,0],[0.5,1,0],[0.28,0.99,0]];verticalLabelPosition=bottom;align=center;verticalAlign=top;shape=mxgraph.kubernetes.icon;prIcon=ing;labelBackgroundColor=none;fontColor=#000000;" vertex="1" parent="1">
                    <mxGeometry x="213.96" y="128" width="50" height="48" as="geometry"/>
                </mxCell>
                <mxCell id="66" style="edgeStyle=none;html=1;entryX=0.5;entryY=1;entryDx=0;entryDy=0;fontColor=#000000;shape=flexArrow;endWidth=7.619047619047619;endSize=4.609523809523809;strokeColor=#999900;startArrow=none;startWidth=7.619047619047619;startSize=6.39047619047619;exitX=0.5;exitY=0;exitDx=0;exitDy=0;exitPerimeter=0;fillColor=#FFFF33;" edge="1" parent="1" source="98" target="35">
                    <mxGeometry relative="1" as="geometry">
                        <mxPoint x="-180" y="66.10000000000014" as="sourcePoint"/>
                        <mxPoint x="-114.75" y="39.99999999999977" as="targetPoint"/>
                    </mxGeometry>
                </mxCell>
                <mxCell id="35" value="&lt;br&gt;&lt;br&gt;&lt;br&gt;&lt;br&gt;&lt;br&gt;&lt;br&gt;Administrator" style="shape=actor;whiteSpace=wrap;html=1;labelBackgroundColor=none;strokeColor=#000000;strokeWidth=2;fontColor=#000000;fillColor=#4D4D4D;" vertex="1" parent="1">
                    <mxGeometry x="-145" y="-37" width="40" height="60" as="geometry"/>
                </mxCell>
                <mxCell id="67" value="&lt;b&gt;&lt;font style=&quot;font-size: 40px;&quot;&gt;近日追加予定&lt;/font&gt;&lt;/b&gt;" style="rounded=1;whiteSpace=wrap;html=1;labelBackgroundColor=none;strokeColor=#000000;strokeWidth=2;fontColor=#000000;fillColor=#66B2FF;" vertex="1" parent="1">
                    <mxGeometry x="160" y="550" width="410" height="230" as="geometry"/>
                </mxCell>
                <mxCell id="69" value="users" style="sketch=0;pointerEvents=1;shadow=0;dashed=0;html=1;strokeColor=none;labelPosition=center;verticalLabelPosition=bottom;verticalAlign=top;align=center;fillColor=#505050;shape=mxgraph.mscae.intune.user_group;labelBackgroundColor=none;strokeWidth=2;fontSize=12;fontColor=#000000;" vertex="1" parent="1">
                    <mxGeometry x="485.99999999999994" y="-10" width="50" height="37" as="geometry"/>
                </mxCell>
                <mxCell id="70" value="" style="aspect=fixed;perimeter=ellipsePerimeter;html=1;align=center;shadow=0;dashed=0;spacingTop=3;image;image=img/lib/active_directory/internet_globe.svg;labelBackgroundColor=none;strokeColor=#000000;strokeWidth=2;fontSize=12;fontColor=#000000;fillColor=#66B2FF;" vertex="1" parent="1">
                    <mxGeometry x="213.96" y="-37" width="50" height="50" as="geometry"/>
                </mxCell>
                <mxCell id="72" value="" style="image;html=1;image=img/lib/clip_art/computers/Laptop_128x128.png;labelBackgroundColor=none;strokeColor=#000000;strokeWidth=2;fontSize=12;fontColor=#000000;fillColor=#66B2FF;" vertex="1" parent="1">
                    <mxGeometry x="439.92" y="-41.75" width="50" height="59.5" as="geometry"/>
                </mxCell>
                <mxCell id="80" style="edgeStyle=none;html=1;fontColor=#000000;shape=flexArrow;endWidth=7.619047619047619;endSize=4.609523809523809;strokeColor=#0000CC;startArrow=block;startWidth=7.619047619047619;startSize=6.39047619047619;fillColor=#99CCFF;entryX=0.5;entryY=1;entryDx=0;entryDy=0;" edge="1" parent="1" source="21" target="70">
                    <mxGeometry relative="1" as="geometry">
                        <mxPoint x="248" y="100" as="sourcePoint"/>
                        <mxPoint x="302.1791044776114" y="2.2737367544323206e-13" as="targetPoint"/>
                    </mxGeometry>
                </mxCell>
                <mxCell id="81" style="edgeStyle=none;html=1;fontColor=#000000;shape=flexArrow;endWidth=7.619047619047619;endSize=6.39047619047619;strokeColor=#0000CC;startArrow=none;startWidth=7.619047619047619;startSize=6.39047619047619;fillColor=#99CCFF;exitX=0;exitY=0.5;exitDx=0;exitDy=0;entryX=1;entryY=0.5;entryDx=0;entryDy=0;" edge="1" parent="1" source="100" target="70">
                    <mxGeometry relative="1" as="geometry">
                        <mxPoint x="289.92" y="63.5" as="sourcePoint"/>
                        <mxPoint x="280" y="-10" as="targetPoint"/>
                    </mxGeometry>
                </mxCell>
                <mxCell id="90" value="Kubelet" style="sketch=0;html=1;dashed=0;whitespace=wrap;fillColor=#2875E2;strokeColor=#ffffff;points=[[0.005,0.63,0],[0.1,0.2,0],[0.9,0.2,0],[0.5,0,0],[0.995,0.63,0],[0.72,0.99,0],[0.5,1,0],[0.28,0.99,0]];verticalLabelPosition=bottom;align=center;verticalAlign=top;shape=mxgraph.kubernetes.icon;prIcon=kubelet;labelBackgroundColor=none;strokeWidth=2;fontColor=#000000;" vertex="1" parent="1">
                    <mxGeometry x="140" y="198" width="50" height="48" as="geometry"/>
                </mxCell>
                <mxCell id="91" style="edgeStyle=none;html=1;fontColor=#000000;shape=flexArrow;endWidth=7.619047619047619;endSize=4.609523809523809;strokeColor=#00994D;startArrow=block;startWidth=7.619047619047619;startSize=4.609523809523809;exitX=0.9;exitY=0.2;exitDx=0;exitDy=0;exitPerimeter=0;fillColor=#33FF99;" edge="1" parent="1">
                    <mxGeometry relative="1" as="geometry">
                        <mxPoint x="269.51000000000016" y="284.5699999999997" as="sourcePoint"/>
                        <mxPoint x="321.96" y="284.4699999999998" as="targetPoint"/>
                    </mxGeometry>
                </mxCell>
                <mxCell id="99" value="" style="edgeStyle=none;html=1;entryX=0.5;entryY=1;entryDx=0;entryDy=0;fontColor=#000000;shape=flexArrow;endWidth=7.619047619047619;endSize=4.609523809523809;strokeColor=#999900;startArrow=block;startWidth=7.619047619047619;startSize=6.39047619047619;exitX=0.5;exitY=0;exitDx=0;exitDy=0;exitPerimeter=0;fillColor=#FFFF33;endArrow=none;" edge="1" parent="1" source="28" target="98">
                    <mxGeometry relative="1" as="geometry">
                        <mxPoint x="-125" y="148" as="sourcePoint"/>
                        <mxPoint x="-125" y="23" as="targetPoint"/>
                    </mxGeometry>
                </mxCell>
                <mxCell id="98" value="Kubectl&lt;br&gt;コマンド" style="text;html=1;strokeColor=none;fillColor=#FFCCE6;align=center;verticalAlign=middle;whiteSpace=wrap;rounded=0;labelBackgroundColor=none;strokeWidth=2;fontSize=12;fontColor=#000000;" vertex="1" parent="1">
                    <mxGeometry x="-155" y="60" width="60" height="30" as="geometry"/>
                </mxCell>
                <mxCell id="104" value="" style="edgeStyle=none;html=1;fontColor=#000000;shape=flexArrow;endWidth=7.619047619047619;endSize=6.39047619047619;strokeColor=#0000CC;startArrow=block;startWidth=7.619047619047619;startSize=6.39047619047619;fillColor=#99CCFF;exitX=0;exitY=0.5;exitDx=0;exitDy=0;entryX=1;entryY=0.5;entryDx=0;entryDy=0;endArrow=none;" edge="1" parent="1" source="72" target="100">
                    <mxGeometry relative="1" as="geometry">
                        <mxPoint x="439.9200000000001" y="-12" as="sourcePoint"/>
                        <mxPoint x="263.9600000000205" y="-12" as="targetPoint"/>
                    </mxGeometry>
                </mxCell>
                <mxCell id="100" value="httpアクセス" style="text;html=1;strokeColor=none;fillColor=#99CCFF;align=center;verticalAlign=middle;whiteSpace=wrap;rounded=0;labelBackgroundColor=none;strokeWidth=2;fontSize=12;fontColor=#000000;" vertex="1" parent="1">
                    <mxGeometry x="310.44" y="-27" width="73.04" height="30" as="geometry"/>
                </mxCell>
            </root>
        </mxGraphModel>
    </diagram>
</mxfile>